<mxfile host="app.diagrams.net" modified="2023-03-31T04:01:00.355Z" agent="Mozilla/5.0 (Windows NT 10.0; Win64; x64) AppleWebKit/537.36 (KHTML, like Gecko) Chrome/111.0.0.0 Safari/537.36" etag="3Qjokl_-Q1OPkjx7v4l0" version="21.1.2" type="device">
  <diagram id="C5RBs43oDa-KdzZeNtuy" name="Page-1">
    <mxGraphModel dx="1877" dy="587" grid="1" gridSize="10" guides="1" tooltips="1" connect="1" arrows="1" fold="1" page="1" pageScale="1" pageWidth="827" pageHeight="1169" math="0" shadow="0">
      <root>
        <mxCell id="WIyWlLk6GJQsqaUBKTNV-0" />
        <mxCell id="WIyWlLk6GJQsqaUBKTNV-1" parent="WIyWlLk6GJQsqaUBKTNV-0" />
        <mxCell id="Ammg91OS1kC33ESLl8Vj-14" value="Dungeon" style="swimlane;fontStyle=1;align=center;verticalAlign=top;childLayout=stackLayout;horizontal=1;startSize=26;horizontalStack=0;resizeParent=1;resizeParentMax=0;resizeLast=0;collapsible=1;marginBottom=0;whiteSpace=wrap;html=1;" parent="WIyWlLk6GJQsqaUBKTNV-1" vertex="1">
          <mxGeometry x="350" y="1800" width="360" height="380" as="geometry" />
        </mxCell>
        <mxCell id="Ammg91OS1kC33ESLl8Vj-15" value="-player:Player&lt;br&gt;-rooms:vector&amp;lt;Room*&amp;gt;&lt;br&gt;-npcs:vector&amp;lt;NPC&amp;gt;&lt;br&gt;-items:vector&amp;lt;Item&amp;gt;&lt;br&gt;-monsters:vector&amp;lt;Monster&amp;gt;&lt;br&gt;-choosenAction:int&lt;br&gt;-bosses:vector&amp;lt;Boss&amp;gt;&lt;br&gt;-finishGame:bool" style="text;strokeColor=none;fillColor=none;align=left;verticalAlign=top;spacingLeft=4;spacingRight=4;overflow=hidden;rotatable=0;points=[[0,0.5],[1,0.5]];portConstraint=eastwest;whiteSpace=wrap;html=1;" parent="Ammg91OS1kC33ESLl8Vj-14" vertex="1">
          <mxGeometry y="26" width="360" height="124" as="geometry" />
        </mxCell>
        <mxCell id="Ammg91OS1kC33ESLl8Vj-16" value="" style="line;strokeWidth=1;fillColor=none;align=left;verticalAlign=middle;spacingTop=-1;spacingLeft=3;spacingRight=3;rotatable=0;labelPosition=right;points=[];portConstraint=eastwest;strokeColor=inherit;" parent="Ammg91OS1kC33ESLl8Vj-14" vertex="1">
          <mxGeometry y="150" width="360" height="8" as="geometry" />
        </mxCell>
        <mxCell id="Ammg91OS1kC33ESLl8Vj-17" value="+createPlayer():void&lt;br style=&quot;border-color: var(--border-color);&quot;&gt;+createMap():void&lt;br style=&quot;border-color: var(--border-color);&quot;&gt;+handleMovement(Room*):vector&amp;lt;string&amp;gt;&lt;br&gt;+handleEvent(Object*, int, Room*): bool&lt;br&gt;+startGame():void&lt;br&gt;+chooseAction(vector&amp;lt;object*&amp;gt;):void&lt;br&gt;+checkGameLogic():bool&lt;br&gt;+createNPC():void&lt;br&gt;+createItem():void&lt;br&gt;+runDungeon():void&lt;br&gt;+initMonsterClaim():void&lt;br&gt;+setIntensity(string, string, int):Item&lt;br&gt;+createMonster():void&lt;br&gt;+getPlayer():Player" style="text;strokeColor=none;fillColor=none;align=left;verticalAlign=top;spacingLeft=4;spacingRight=4;overflow=hidden;rotatable=0;points=[[0,0.5],[1,0.5]];portConstraint=eastwest;whiteSpace=wrap;html=1;" parent="Ammg91OS1kC33ESLl8Vj-14" vertex="1">
          <mxGeometry y="158" width="360" height="222" as="geometry" />
        </mxCell>
        <mxCell id="Ammg91OS1kC33ESLl8Vj-27" value="Objects" style="swimlane;fontStyle=1;align=center;verticalAlign=top;childLayout=stackLayout;horizontal=1;startSize=26;horizontalStack=0;resizeParent=1;resizeParentMax=0;resizeLast=0;collapsible=1;marginBottom=0;whiteSpace=wrap;html=1;" parent="WIyWlLk6GJQsqaUBKTNV-1" vertex="1">
          <mxGeometry x="470" y="380" width="160" height="180" as="geometry" />
        </mxCell>
        <mxCell id="Ammg91OS1kC33ESLl8Vj-28" value="-name:string&lt;br&gt;-tag:string" style="text;strokeColor=none;fillColor=none;align=left;verticalAlign=top;spacingLeft=4;spacingRight=4;overflow=hidden;rotatable=0;points=[[0,0.5],[1,0.5]];portConstraint=eastwest;whiteSpace=wrap;html=1;" parent="Ammg91OS1kC33ESLl8Vj-27" vertex="1">
          <mxGeometry y="26" width="160" height="44" as="geometry" />
        </mxCell>
        <mxCell id="Ammg91OS1kC33ESLl8Vj-29" value="" style="line;strokeWidth=1;fillColor=none;align=left;verticalAlign=middle;spacingTop=-1;spacingLeft=3;spacingRight=3;rotatable=0;labelPosition=right;points=[];portConstraint=eastwest;strokeColor=inherit;" parent="Ammg91OS1kC33ESLl8Vj-27" vertex="1">
          <mxGeometry y="70" width="160" height="8" as="geometry" />
        </mxCell>
        <mxCell id="Ammg91OS1kC33ESLl8Vj-30" value="+object(string, string):object&lt;br&gt;+triggerEvent():virtual bool&lt;br&gt;+getName():string&lt;br&gt;+getTag():string&lt;br&gt;+setName(string):void&lt;br&gt;+setTag(string):void" style="text;strokeColor=none;fillColor=none;align=left;verticalAlign=top;spacingLeft=4;spacingRight=4;overflow=hidden;rotatable=0;points=[[0,0.5],[1,0.5]];portConstraint=eastwest;whiteSpace=wrap;html=1;" parent="Ammg91OS1kC33ESLl8Vj-27" vertex="1">
          <mxGeometry y="78" width="160" height="102" as="geometry" />
        </mxCell>
        <mxCell id="Ammg91OS1kC33ESLl8Vj-32" value="GameCharacter" style="swimlane;fontStyle=1;align=center;verticalAlign=top;childLayout=stackLayout;horizontal=1;startSize=26;horizontalStack=0;resizeParent=1;resizeParentMax=0;resizeLast=0;collapsible=1;marginBottom=0;whiteSpace=wrap;html=1;" parent="WIyWlLk6GJQsqaUBKTNV-1" vertex="1">
          <mxGeometry x="60" y="680" width="360" height="300" as="geometry" />
        </mxCell>
        <mxCell id="Ammg91OS1kC33ESLl8Vj-33" value="-name:string&lt;br&gt;-maxHealth:int&lt;br&gt;-currentHealth:int&lt;br&gt;-attack:int&lt;br&gt;-defense:int" style="text;strokeColor=none;fillColor=none;align=left;verticalAlign=top;spacingLeft=4;spacingRight=4;overflow=hidden;rotatable=0;points=[[0,0.5],[1,0.5]];portConstraint=eastwest;whiteSpace=wrap;html=1;" parent="Ammg91OS1kC33ESLl8Vj-32" vertex="1">
          <mxGeometry y="26" width="360" height="84" as="geometry" />
        </mxCell>
        <mxCell id="Ammg91OS1kC33ESLl8Vj-34" value="" style="line;strokeWidth=1;fillColor=none;align=left;verticalAlign=middle;spacingTop=-1;spacingLeft=3;spacingRight=3;rotatable=0;labelPosition=right;points=[];portConstraint=eastwest;strokeColor=inherit;" parent="Ammg91OS1kC33ESLl8Vj-32" vertex="1">
          <mxGeometry y="110" width="360" height="8" as="geometry" />
        </mxCell>
        <mxCell id="Ammg91OS1kC33ESLl8Vj-35" value="+GameCharacter(string, string, int, int, int):GameCharacter&lt;br&gt;+checkIsDead():bool&lt;br&gt;+takeDamage():int&lt;br&gt;+setMaxHealth(int):void&lt;br&gt;+setCurrentHealth(int):void&lt;br&gt;+setAttack(int):void&lt;br&gt;+setDefense(int):void&lt;br&gt;+getMaxHealth():int&lt;br&gt;+getCurrentHealth():int&lt;br&gt;+getAttack():int&lt;br&gt;+getDefense():int" style="text;strokeColor=none;fillColor=none;align=left;verticalAlign=top;spacingLeft=4;spacingRight=4;overflow=hidden;rotatable=0;points=[[0,0.5],[1,0.5]];portConstraint=eastwest;whiteSpace=wrap;html=1;" parent="Ammg91OS1kC33ESLl8Vj-32" vertex="1">
          <mxGeometry y="118" width="360" height="182" as="geometry" />
        </mxCell>
        <mxCell id="Ammg91OS1kC33ESLl8Vj-36" value="Player" style="swimlane;fontStyle=1;align=center;verticalAlign=top;childLayout=stackLayout;horizontal=1;startSize=26;horizontalStack=0;resizeParent=1;resizeParentMax=0;resizeLast=0;collapsible=1;marginBottom=0;whiteSpace=wrap;html=1;" parent="WIyWlLk6GJQsqaUBKTNV-1" vertex="1">
          <mxGeometry x="360" y="1050" width="250" height="400" as="geometry" />
        </mxCell>
        <mxCell id="Ammg91OS1kC33ESLl8Vj-37" value="-currentRoom:Room*&lt;br&gt;-previousRoom:Room*&lt;br&gt;-Inventory:vector&amp;lt;Item&amp;gt;&lt;br&gt;-occupation:int&lt;br&gt;-coin:int&lt;br&gt;-mp:int" style="text;strokeColor=none;fillColor=none;align=left;verticalAlign=top;spacingLeft=4;spacingRight=4;overflow=hidden;rotatable=0;points=[[0,0.5],[1,0.5]];portConstraint=eastwest;whiteSpace=wrap;html=1;" parent="Ammg91OS1kC33ESLl8Vj-36" vertex="1">
          <mxGeometry y="26" width="250" height="94" as="geometry" />
        </mxCell>
        <mxCell id="Ammg91OS1kC33ESLl8Vj-38" value="" style="line;strokeWidth=1;fillColor=none;align=left;verticalAlign=middle;spacingTop=-1;spacingLeft=3;spacingRight=3;rotatable=0;labelPosition=right;points=[];portConstraint=eastwest;strokeColor=inherit;" parent="Ammg91OS1kC33ESLl8Vj-36" vertex="1">
          <mxGeometry y="120" width="250" height="8" as="geometry" />
        </mxCell>
        <mxCell id="Ammg91OS1kC33ESLl8Vj-39" value="+Player(string, int, int, int, int, int, int):Player&lt;br&gt;+addItem(Item):void&lt;br&gt;+increaseState(int, int, int): void&lt;br&gt;+revive(int):void&lt;br&gt;+triggerEvent(Object*):bool&lt;br&gt;+setCurrentRoom(Room*):void&lt;br&gt;+setPreviousRoom(Room*):void&lt;br&gt;+setInventory(vector&amp;lt;Item&amp;gt;):void&lt;br&gt;+setOccupation(int):void&lt;br&gt;+setCoin(int):void&lt;br&gt;+setMp(int):void&lt;br&gt;+checkInventory():void&lt;br&gt;+getCurrentRoom():Room*&lt;br&gt;+getPreviousRoom():Room*&lt;br&gt;+getInventory():vector&amp;lt;Item&amp;gt;&lt;br&gt;+getOccupation():string&lt;br&gt;+getCoin():int&lt;br&gt;+getMp():int" style="text;strokeColor=none;fillColor=none;align=left;verticalAlign=top;spacingLeft=4;spacingRight=4;overflow=hidden;rotatable=0;points=[[0,0.5],[1,0.5]];portConstraint=eastwest;whiteSpace=wrap;html=1;" parent="Ammg91OS1kC33ESLl8Vj-36" vertex="1">
          <mxGeometry y="128" width="250" height="272" as="geometry" />
        </mxCell>
        <mxCell id="Ammg91OS1kC33ESLl8Vj-40" value="Monster" style="swimlane;fontStyle=1;align=center;verticalAlign=top;childLayout=stackLayout;horizontal=1;startSize=26;horizontalStack=0;resizeParent=1;resizeParentMax=0;resizeLast=0;collapsible=1;marginBottom=0;whiteSpace=wrap;html=1;" parent="WIyWlLk6GJQsqaUBKTNV-1" vertex="1">
          <mxGeometry x="110" y="1049" width="230" height="140" as="geometry" />
        </mxCell>
        <mxCell id="Ammg91OS1kC33ESLl8Vj-41" value="-monsterClaim:vector&amp;lt;string&amp;gt;" style="text;strokeColor=none;fillColor=none;align=left;verticalAlign=top;spacingLeft=4;spacingRight=4;overflow=hidden;rotatable=0;points=[[0,0.5],[1,0.5]];portConstraint=eastwest;whiteSpace=wrap;html=1;" parent="Ammg91OS1kC33ESLl8Vj-40" vertex="1">
          <mxGeometry y="26" width="230" height="26" as="geometry" />
        </mxCell>
        <mxCell id="Ammg91OS1kC33ESLl8Vj-42" value="" style="line;strokeWidth=1;fillColor=none;align=left;verticalAlign=middle;spacingTop=-1;spacingLeft=3;spacingRight=3;rotatable=0;labelPosition=right;points=[];portConstraint=eastwest;strokeColor=inherit;" parent="Ammg91OS1kC33ESLl8Vj-40" vertex="1">
          <mxGeometry y="52" width="230" height="8" as="geometry" />
        </mxCell>
        <mxCell id="Ammg91OS1kC33ESLl8Vj-43" value="+Monster(string, int, int, int):Monster&lt;br&gt;+increaseState(int, int, int):void&lt;br&gt;+revive(int):void&lt;br&gt;+triggerEvent(Object*):bool" style="text;strokeColor=none;fillColor=none;align=left;verticalAlign=top;spacingLeft=4;spacingRight=4;overflow=hidden;rotatable=0;points=[[0,0.5],[1,0.5]];portConstraint=eastwest;whiteSpace=wrap;html=1;" parent="Ammg91OS1kC33ESLl8Vj-40" vertex="1">
          <mxGeometry y="60" width="230" height="80" as="geometry" />
        </mxCell>
        <mxCell id="Ammg91OS1kC33ESLl8Vj-47" value="Item" style="swimlane;fontStyle=1;align=center;verticalAlign=top;childLayout=stackLayout;horizontal=1;startSize=26;horizontalStack=0;resizeParent=1;resizeParentMax=0;resizeLast=0;collapsible=1;marginBottom=0;whiteSpace=wrap;html=1;" parent="WIyWlLk6GJQsqaUBKTNV-1" vertex="1">
          <mxGeometry x="630" y="1050" width="250" height="360" as="geometry" />
        </mxCell>
        <mxCell id="Ammg91OS1kC33ESLl8Vj-48" value="-health:int&lt;br&gt;-attack:int&lt;br&gt;-defense:int&lt;br&gt;-rare:int&lt;br&gt;-price:int&lt;br&gt;-descripation:string" style="text;strokeColor=none;fillColor=none;align=left;verticalAlign=top;spacingLeft=4;spacingRight=4;overflow=hidden;rotatable=0;points=[[0,0.5],[1,0.5]];portConstraint=eastwest;whiteSpace=wrap;html=1;" parent="Ammg91OS1kC33ESLl8Vj-47" vertex="1">
          <mxGeometry y="26" width="250" height="104" as="geometry" />
        </mxCell>
        <mxCell id="Ammg91OS1kC33ESLl8Vj-49" value="" style="line;strokeWidth=1;fillColor=none;align=left;verticalAlign=middle;spacingTop=-1;spacingLeft=3;spacingRight=3;rotatable=0;labelPosition=right;points=[];portConstraint=eastwest;strokeColor=inherit;" parent="Ammg91OS1kC33ESLl8Vj-47" vertex="1">
          <mxGeometry y="130" width="250" height="8" as="geometry" />
        </mxCell>
        <mxCell id="Ammg91OS1kC33ESLl8Vj-50" value="+Item(string, string, int, int, int, int):Item&lt;br&gt;+triggerEvent(Object*):bool&lt;br&gt;+getHealth():int&lt;br&gt;+getAttack():int&lt;br&gt;+getDefense():int&lt;br&gt;+getDescripation():string&lt;br&gt;+getRare():string&lt;br&gt;+getPrice():int&lt;br&gt;+setHealth(int):void&lt;br&gt;+setAttack(int):void&lt;br&gt;+setDefense(int):void&lt;br&gt;+setDescripation(string):void&lt;br&gt;+setRare(int):void&lt;br&gt;+setPrice(int):void" style="text;strokeColor=none;fillColor=none;align=left;verticalAlign=top;spacingLeft=4;spacingRight=4;overflow=hidden;rotatable=0;points=[[0,0.5],[1,0.5]];portConstraint=eastwest;whiteSpace=wrap;html=1;" parent="Ammg91OS1kC33ESLl8Vj-47" vertex="1">
          <mxGeometry y="138" width="250" height="222" as="geometry" />
        </mxCell>
        <mxCell id="Ammg91OS1kC33ESLl8Vj-57" value="NPC" style="swimlane;fontStyle=1;align=center;verticalAlign=top;childLayout=stackLayout;horizontal=1;startSize=26;horizontalStack=0;resizeParent=1;resizeParentMax=0;resizeLast=0;collapsible=1;marginBottom=0;whiteSpace=wrap;html=1;" parent="WIyWlLk6GJQsqaUBKTNV-1" vertex="1">
          <mxGeometry x="-150" y="1050" width="230" height="190" as="geometry" />
        </mxCell>
        <mxCell id="Ammg91OS1kC33ESLl8Vj-58" value="-script:string&lt;br&gt;-commodity:vector&amp;lt;Item&amp;gt;" style="text;strokeColor=none;fillColor=none;align=left;verticalAlign=top;spacingLeft=4;spacingRight=4;overflow=hidden;rotatable=0;points=[[0,0.5],[1,0.5]];portConstraint=eastwest;whiteSpace=wrap;html=1;" parent="Ammg91OS1kC33ESLl8Vj-57" vertex="1">
          <mxGeometry y="26" width="230" height="44" as="geometry" />
        </mxCell>
        <mxCell id="Ammg91OS1kC33ESLl8Vj-59" value="" style="line;strokeWidth=1;fillColor=none;align=left;verticalAlign=middle;spacingTop=-1;spacingLeft=3;spacingRight=3;rotatable=0;labelPosition=right;points=[];portConstraint=eastwest;strokeColor=inherit;" parent="Ammg91OS1kC33ESLl8Vj-57" vertex="1">
          <mxGeometry y="70" width="230" height="8" as="geometry" />
        </mxCell>
        <mxCell id="Ammg91OS1kC33ESLl8Vj-60" value="+NPC(string, string, vector&amp;lt;Item&amp;gt;):NPC&lt;br&gt;+listCommodity():void&lt;br&gt;+triggerEvent(Object*):bool&lt;br&gt;+setCommodity(vector&amp;lt;Item&amp;gt;):void&lt;br&gt;+setScript(string):void&lt;br&gt;+getScript():string&lt;br&gt;+getCommodity():vector&amp;lt;Item&amp;gt;&lt;br&gt;" style="text;strokeColor=none;fillColor=none;align=left;verticalAlign=top;spacingLeft=4;spacingRight=4;overflow=hidden;rotatable=0;points=[[0,0.5],[1,0.5]];portConstraint=eastwest;whiteSpace=wrap;html=1;" parent="Ammg91OS1kC33ESLl8Vj-57" vertex="1">
          <mxGeometry y="78" width="230" height="112" as="geometry" />
        </mxCell>
        <mxCell id="Ammg91OS1kC33ESLl8Vj-63" value="Room" style="swimlane;fontStyle=1;align=center;verticalAlign=top;childLayout=stackLayout;horizontal=1;startSize=26;horizontalStack=0;resizeParent=1;resizeParentMax=0;resizeLast=0;collapsible=1;marginBottom=0;whiteSpace=wrap;html=1;" parent="WIyWlLk6GJQsqaUBKTNV-1" vertex="1">
          <mxGeometry x="960" y="1049" width="260" height="420" as="geometry" />
        </mxCell>
        <mxCell id="Ammg91OS1kC33ESLl8Vj-64" value="-upRoom:Room*&lt;br&gt;-downRoom:Room*&lt;br&gt;-leftRoom:Room*&lt;br&gt;-rightRoom:Room*&lt;br&gt;-isExit:bool&lt;br&gt;-index:int&lt;br&gt;-objects:vector&amp;lt;Object*&amp;gt;" style="text;strokeColor=none;fillColor=none;align=left;verticalAlign=top;spacingLeft=4;spacingRight=4;overflow=hidden;rotatable=0;points=[[0,0.5],[1,0.5]];portConstraint=eastwest;whiteSpace=wrap;html=1;" parent="Ammg91OS1kC33ESLl8Vj-63" vertex="1">
          <mxGeometry y="26" width="260" height="134" as="geometry" />
        </mxCell>
        <mxCell id="Ammg91OS1kC33ESLl8Vj-65" value="" style="line;strokeWidth=1;fillColor=none;align=left;verticalAlign=middle;spacingTop=-1;spacingLeft=3;spacingRight=3;rotatable=0;labelPosition=right;points=[];portConstraint=eastwest;strokeColor=inherit;" parent="Ammg91OS1kC33ESLl8Vj-63" vertex="1">
          <mxGeometry y="160" width="260" height="8" as="geometry" />
        </mxCell>
        <mxCell id="Ammg91OS1kC33ESLl8Vj-66" value="+Room(bool, int, vector&amp;lt;Object*&amp;gt;):Room&lt;br&gt;+popObject(Object*)&lt;br&gt;+setUpRoom(Room*):void&lt;br&gt;+setDownRoom(Room*):void&lt;br&gt;+setRightRoom(Room*):void&lt;br&gt;+setLeftRoom(Room*):void&lt;br&gt;+setIsExit(bool):void&lt;br&gt;+setIndex(int):void&lt;br&gt;+setObjects(vector&amp;lt;Object*&amp;gt;):void&lt;br&gt;+getIsExit():bool&lt;br&gt;+getIndex():int&lt;br&gt;+getObjects():vector&amp;lt;Object*&amp;gt;&lt;br&gt;+getLeftRoom():Room*&lt;br&gt;+getRightRoom():Room*&lt;br&gt;+getUpRoom():Room*&lt;br&gt;+getDownRoom():Room*" style="text;strokeColor=none;fillColor=none;align=left;verticalAlign=top;spacingLeft=4;spacingRight=4;overflow=hidden;rotatable=0;points=[[0,0.5],[1,0.5]];portConstraint=eastwest;whiteSpace=wrap;html=1;" parent="Ammg91OS1kC33ESLl8Vj-63" vertex="1">
          <mxGeometry y="168" width="260" height="252" as="geometry" />
        </mxCell>
        <mxCell id="Ammg91OS1kC33ESLl8Vj-70" value="" style="endArrow=diamondThin;endFill=0;endSize=24;html=1;rounded=0;exitX=0.411;exitY=-0.011;exitDx=0;exitDy=0;exitPerimeter=0;entryX=0.481;entryY=1.004;entryDx=0;entryDy=0;entryPerimeter=0;" parent="WIyWlLk6GJQsqaUBKTNV-1" source="Ammg91OS1kC33ESLl8Vj-14" target="Ammg91OS1kC33ESLl8Vj-39" edge="1">
          <mxGeometry width="160" relative="1" as="geometry">
            <mxPoint x="670" y="1520" as="sourcePoint" />
            <mxPoint x="830" y="1520" as="targetPoint" />
          </mxGeometry>
        </mxCell>
        <mxCell id="Ammg91OS1kC33ESLl8Vj-71" value="" style="endArrow=diamondThin;endFill=0;endSize=24;html=1;rounded=0;entryX=0.356;entryY=1.014;entryDx=0;entryDy=0;entryPerimeter=0;exitX=1;exitY=0.5;exitDx=0;exitDy=0;" parent="WIyWlLk6GJQsqaUBKTNV-1" source="Ammg91OS1kC33ESLl8Vj-15" target="Ammg91OS1kC33ESLl8Vj-66" edge="1">
          <mxGeometry width="160" relative="1" as="geometry">
            <mxPoint x="670" y="1620" as="sourcePoint" />
            <mxPoint x="830" y="1620" as="targetPoint" />
          </mxGeometry>
        </mxCell>
        <mxCell id="Ammg91OS1kC33ESLl8Vj-72" value="" style="endArrow=diamondThin;endFill=0;endSize=24;html=1;rounded=0;exitX=0.884;exitY=-0.004;exitDx=0;exitDy=0;exitPerimeter=0;entryX=0.535;entryY=1.015;entryDx=0;entryDy=0;entryPerimeter=0;" parent="WIyWlLk6GJQsqaUBKTNV-1" source="Ammg91OS1kC33ESLl8Vj-14" target="Ammg91OS1kC33ESLl8Vj-50" edge="1">
          <mxGeometry width="160" relative="1" as="geometry">
            <mxPoint x="670" y="1510" as="sourcePoint" />
            <mxPoint x="830" y="1510" as="targetPoint" />
          </mxGeometry>
        </mxCell>
        <mxCell id="Ammg91OS1kC33ESLl8Vj-73" value="" style="endArrow=diamondThin;endFill=0;endSize=24;html=1;rounded=0;entryX=-0.003;entryY=0.991;entryDx=0;entryDy=0;entryPerimeter=0;exitX=-0.009;exitY=0.429;exitDx=0;exitDy=0;exitPerimeter=0;" parent="WIyWlLk6GJQsqaUBKTNV-1" source="Ammg91OS1kC33ESLl8Vj-15" target="Ammg91OS1kC33ESLl8Vj-60" edge="1">
          <mxGeometry width="160" relative="1" as="geometry">
            <mxPoint x="-160" y="1520" as="sourcePoint" />
            <mxPoint y="1520" as="targetPoint" />
            <Array as="points">
              <mxPoint x="-160" y="1660" />
            </Array>
          </mxGeometry>
        </mxCell>
        <mxCell id="Ammg91OS1kC33ESLl8Vj-74" value="" style="endArrow=diamondThin;endFill=0;endSize=24;html=1;rounded=0;entryX=0.596;entryY=1.007;entryDx=0;entryDy=0;entryPerimeter=0;exitX=0.173;exitY=-0.006;exitDx=0;exitDy=0;exitPerimeter=0;" parent="WIyWlLk6GJQsqaUBKTNV-1" source="Ammg91OS1kC33ESLl8Vj-14" target="Ammg91OS1kC33ESLl8Vj-43" edge="1">
          <mxGeometry width="160" relative="1" as="geometry">
            <mxPoint x="390" y="1580" as="sourcePoint" />
            <mxPoint y="1520" as="targetPoint" />
          </mxGeometry>
        </mxCell>
        <mxCell id="Ammg91OS1kC33ESLl8Vj-68" value="" style="endArrow=diamondThin;endFill=0;endSize=24;html=1;rounded=0;exitX=0.5;exitY=0;exitDx=0;exitDy=0;entryX=1.009;entryY=0.759;entryDx=0;entryDy=0;entryPerimeter=0;" parent="WIyWlLk6GJQsqaUBKTNV-1" source="Ammg91OS1kC33ESLl8Vj-63" target="Ammg91OS1kC33ESLl8Vj-30" edge="1">
          <mxGeometry width="160" relative="1" as="geometry">
            <mxPoint x="620" y="180" as="sourcePoint" />
            <mxPoint x="780" y="180" as="targetPoint" />
            <Array as="points">
              <mxPoint x="1090" y="535" />
            </Array>
          </mxGeometry>
        </mxCell>
        <mxCell id="uDgP6eY_o_yV--3Jrvhg-5" value="Boss" style="swimlane;fontStyle=1;align=center;verticalAlign=top;childLayout=stackLayout;horizontal=1;startSize=26;horizontalStack=0;resizeParent=1;resizeParentMax=0;resizeLast=0;collapsible=1;marginBottom=0;whiteSpace=wrap;html=1;" parent="WIyWlLk6GJQsqaUBKTNV-1" vertex="1">
          <mxGeometry x="10" y="1380" width="200" height="170" as="geometry" />
        </mxCell>
        <mxCell id="uDgP6eY_o_yV--3Jrvhg-6" value="~specialSkillName:string" style="text;strokeColor=none;fillColor=none;align=left;verticalAlign=top;spacingLeft=4;spacingRight=4;overflow=hidden;rotatable=0;points=[[0,0.5],[1,0.5]];portConstraint=eastwest;whiteSpace=wrap;html=1;" parent="uDgP6eY_o_yV--3Jrvhg-5" vertex="1">
          <mxGeometry y="26" width="200" height="26" as="geometry" />
        </mxCell>
        <mxCell id="uDgP6eY_o_yV--3Jrvhg-7" value="" style="line;strokeWidth=1;fillColor=none;align=left;verticalAlign=middle;spacingTop=-1;spacingLeft=3;spacingRight=3;rotatable=0;labelPosition=right;points=[];portConstraint=eastwest;strokeColor=inherit;" parent="uDgP6eY_o_yV--3Jrvhg-5" vertex="1">
          <mxGeometry y="52" width="200" height="8" as="geometry" />
        </mxCell>
        <mxCell id="uDgP6eY_o_yV--3Jrvhg-8" value="+Boss(string, string, int, int, int):Boss&lt;br&gt;+secondState():void&lt;br&gt;+setSpecialSkillName(string):void&lt;br&gt;+getSpecialSkillName():string" style="text;strokeColor=none;fillColor=none;align=left;verticalAlign=top;spacingLeft=4;spacingRight=4;overflow=hidden;rotatable=0;points=[[0,0.5],[1,0.5]];portConstraint=eastwest;whiteSpace=wrap;html=1;" parent="uDgP6eY_o_yV--3Jrvhg-5" vertex="1">
          <mxGeometry y="60" width="200" height="110" as="geometry" />
        </mxCell>
        <mxCell id="uDgP6eY_o_yV--3Jrvhg-9" value="" style="endArrow=diamondThin;endFill=0;endSize=24;html=1;rounded=0;entryX=0.601;entryY=1.024;entryDx=0;entryDy=0;entryPerimeter=0;exitX=0.004;exitY=0.421;exitDx=0;exitDy=0;exitPerimeter=0;" parent="WIyWlLk6GJQsqaUBKTNV-1" source="Ammg91OS1kC33ESLl8Vj-15" target="uDgP6eY_o_yV--3Jrvhg-8" edge="1">
          <mxGeometry width="160" relative="1" as="geometry">
            <mxPoint x="70" y="1580" as="sourcePoint" />
            <mxPoint x="230" y="1580" as="targetPoint" />
          </mxGeometry>
        </mxCell>
        <mxCell id="sA5XDg1-_KBPlBZRUFdV-0" value="Extends" style="endArrow=block;endSize=16;endFill=0;html=1;rounded=0;entryX=1.015;entryY=0.581;entryDx=0;entryDy=0;entryPerimeter=0;" parent="WIyWlLk6GJQsqaUBKTNV-1" source="Ammg91OS1kC33ESLl8Vj-36" target="Ammg91OS1kC33ESLl8Vj-35" edge="1">
          <mxGeometry width="160" relative="1" as="geometry">
            <mxPoint x="-110" y="810" as="sourcePoint" />
            <mxPoint x="50" y="810" as="targetPoint" />
          </mxGeometry>
        </mxCell>
        <mxCell id="sA5XDg1-_KBPlBZRUFdV-1" value="Extends" style="endArrow=block;endSize=16;endFill=0;html=1;rounded=0;entryX=0.531;entryY=1.012;entryDx=0;entryDy=0;entryPerimeter=0;exitX=0.557;exitY=0.017;exitDx=0;exitDy=0;exitPerimeter=0;" parent="WIyWlLk6GJQsqaUBKTNV-1" source="Ammg91OS1kC33ESLl8Vj-40" target="Ammg91OS1kC33ESLl8Vj-35" edge="1">
          <mxGeometry width="160" relative="1" as="geometry">
            <mxPoint x="100" y="1010" as="sourcePoint" />
            <mxPoint x="260" y="1010" as="targetPoint" />
          </mxGeometry>
        </mxCell>
        <mxCell id="sA5XDg1-_KBPlBZRUFdV-2" value="Extends" style="endArrow=block;endSize=16;endFill=0;html=1;rounded=0;" parent="WIyWlLk6GJQsqaUBKTNV-1" edge="1">
          <mxGeometry width="160" relative="1" as="geometry">
            <mxPoint x="-50" y="1040" as="sourcePoint" />
            <mxPoint x="60" y="920" as="targetPoint" />
          </mxGeometry>
        </mxCell>
        <mxCell id="sA5XDg1-_KBPlBZRUFdV-3" value="Extends" style="endArrow=block;endSize=16;endFill=0;html=1;rounded=0;exitX=0.41;exitY=-0.008;exitDx=0;exitDy=0;exitPerimeter=0;" parent="WIyWlLk6GJQsqaUBKTNV-1" source="Ammg91OS1kC33ESLl8Vj-47" target="Ammg91OS1kC33ESLl8Vj-30" edge="1">
          <mxGeometry width="160" relative="1" as="geometry">
            <mxPoint x="464" y="1060" as="sourcePoint" />
            <mxPoint x="435" y="914" as="targetPoint" />
          </mxGeometry>
        </mxCell>
        <mxCell id="sA5XDg1-_KBPlBZRUFdV-4" value="Extends" style="endArrow=block;endSize=16;endFill=0;html=1;rounded=0;exitX=0.544;exitY=-0.001;exitDx=0;exitDy=0;exitPerimeter=0;" parent="WIyWlLk6GJQsqaUBKTNV-1" source="Ammg91OS1kC33ESLl8Vj-32" target="Ammg91OS1kC33ESLl8Vj-30" edge="1">
          <mxGeometry width="160" relative="1" as="geometry">
            <mxPoint x="474" y="1070" as="sourcePoint" />
            <mxPoint x="445" y="924" as="targetPoint" />
          </mxGeometry>
        </mxCell>
        <mxCell id="sA5XDg1-_KBPlBZRUFdV-5" value="Extends" style="endArrow=block;endSize=16;endFill=0;html=1;rounded=0;entryX=0.102;entryY=1.02;entryDx=0;entryDy=0;entryPerimeter=0;" parent="WIyWlLk6GJQsqaUBKTNV-1" source="uDgP6eY_o_yV--3Jrvhg-5" target="Ammg91OS1kC33ESLl8Vj-43" edge="1">
          <mxGeometry width="160" relative="1" as="geometry">
            <mxPoint x="248" y="1061" as="sourcePoint" />
            <mxPoint x="261" y="992" as="targetPoint" />
          </mxGeometry>
        </mxCell>
        <mxCell id="m2MgvQxjw-RnQRkq5GY8-0" value="Skill" style="swimlane;fontStyle=1;align=center;verticalAlign=top;childLayout=stackLayout;horizontal=1;startSize=26;horizontalStack=0;resizeParent=1;resizeParentMax=0;resizeLast=0;collapsible=1;marginBottom=0;whiteSpace=wrap;html=1;" vertex="1" parent="WIyWlLk6GJQsqaUBKTNV-1">
          <mxGeometry x="630" y="1510" width="220" height="220" as="geometry" />
        </mxCell>
        <mxCell id="m2MgvQxjw-RnQRkq5GY8-1" value="-effect:string&lt;br&gt;-effectTag:int&lt;br&gt;-level:int" style="text;strokeColor=none;fillColor=none;align=left;verticalAlign=top;spacingLeft=4;spacingRight=4;overflow=hidden;rotatable=0;points=[[0,0.5],[1,0.5]];portConstraint=eastwest;whiteSpace=wrap;html=1;" vertex="1" parent="m2MgvQxjw-RnQRkq5GY8-0">
          <mxGeometry y="26" width="220" height="54" as="geometry" />
        </mxCell>
        <mxCell id="m2MgvQxjw-RnQRkq5GY8-2" value="" style="line;strokeWidth=1;fillColor=none;align=left;verticalAlign=middle;spacingTop=-1;spacingLeft=3;spacingRight=3;rotatable=0;labelPosition=right;points=[];portConstraint=eastwest;strokeColor=inherit;" vertex="1" parent="m2MgvQxjw-RnQRkq5GY8-0">
          <mxGeometry y="80" width="220" height="8" as="geometry" />
        </mxCell>
        <mxCell id="m2MgvQxjw-RnQRkq5GY8-3" value="+setEffect(string):void&lt;br&gt;+getEffect():string&lt;br&gt;+setEffectTag(int);void&lt;br&gt;+getEffectTag():int&lt;br&gt;+setLevel(int):void&lt;br&gt;+getLevel():int&lt;br&gt;+activateSkill(Player*):void&lt;br&gt;+monsterSkill(Player*, Monster*):void" style="text;strokeColor=none;fillColor=none;align=left;verticalAlign=top;spacingLeft=4;spacingRight=4;overflow=hidden;rotatable=0;points=[[0,0.5],[1,0.5]];portConstraint=eastwest;whiteSpace=wrap;html=1;" vertex="1" parent="m2MgvQxjw-RnQRkq5GY8-0">
          <mxGeometry y="88" width="220" height="132" as="geometry" />
        </mxCell>
      </root>
    </mxGraphModel>
  </diagram>
</mxfile>
